<svg width="80" height="80" viewBox="0 0 80 80" fill="none" xmlns="http://www.w3.org/2000/svg">
<rect x="0.5" y="0.5" width="79" height="79" rx="39.5" fill="#DFD4F4"/>
<rect x="0.5" y="0.5" width="79" height="79" rx="39.5" stroke="#4500D0" stroke-dasharray="3 2"/>
<path d="M59.6505 50.5737L55.5517 48.5243L52.9432 41.7388C52.9124 41.6586 52.8655 41.5856 52.8053 41.5243C52.7451 41.463 52.6729 41.4148 52.5933 41.3827L36.4075 34.9127C36.2943 34.8677 36.1705 34.8567 36.0511 34.8811C35.9318 34.9055 35.8222 34.9643 35.7358 35.0502L33.5771 37.2089C33.4923 37.2954 33.4345 37.4046 33.4107 37.5233C33.3868 37.642 33.398 37.765 33.4428 37.8775L39.9127 54.0632C39.9448 54.1429 39.993 54.2151 40.0543 54.2753C40.1156 54.3355 40.1886 54.3824 40.2688 54.4131L47.0543 57.0217L49.1037 61.1205C49.1468 61.2109 49.2111 61.2896 49.291 61.3499C49.3709 61.4103 49.4642 61.4505 49.5629 61.4673C49.5962 61.4704 49.6296 61.4704 49.6629 61.4673C49.8283 61.4666 49.9867 61.4003 50.1034 61.283L59.813 51.5734C59.8844 51.5044 59.9384 51.4194 59.9705 51.3254C60.0025 51.2314 60.0117 51.1312 59.9973 51.0329C59.9805 50.9342 59.9403 50.8409 59.8799 50.761C59.8196 50.6811 59.7409 50.6168 59.6505 50.5737ZM34.7517 37.7963L35.0985 37.4526L43.1555 45.5096C42.6245 46.262 42.3952 47.1862 42.5128 48.0996C42.6305 49.0129 43.0866 49.8489 43.791 50.4421C44.4953 51.0353 45.3967 51.3427 46.3167 51.3034C47.2368 51.264 48.1086 50.8809 48.7598 50.2297C49.4109 49.5786 49.7941 48.7068 49.8334 47.7867C49.8727 46.8667 49.5654 45.9653 48.9721 45.261C48.3789 44.5566 47.5429 44.1005 46.6296 43.9828C45.7162 43.8651 44.792 44.0945 44.0396 44.6255L35.9826 36.5685L36.3263 36.2217L51.8747 42.4417L54.3271 48.8211L47.3511 55.7971L40.9717 53.3447L34.7517 37.7963ZM46.1577 45.2003C46.7192 45.2011 47.2631 45.3966 47.6967 45.7535C48.1303 46.1103 48.4267 46.6065 48.5355 47.1574C48.6443 47.7083 48.5587 48.2799 48.2933 48.7748C48.028 49.2697 47.5992 49.6572 47.0802 49.8715C46.5611 50.0857 45.9838 50.1134 45.4466 49.9497C44.9095 49.786 44.4456 49.4412 44.1342 48.9739C43.8228 48.5067 43.683 47.9459 43.7386 47.3871C43.7943 46.8283 44.042 46.3061 44.4395 45.9094C44.8956 45.4547 45.5136 45.1997 46.1577 45.2003ZM49.8347 59.7865L48.2727 56.6625L55.1862 49.7489L58.3103 51.3109L49.8347 59.7865Z" fill="#4500D0"/>
<path d="M31.9588 54.9072C31.8393 54.7942 31.6811 54.7313 31.5167 54.7313C31.3523 54.7313 31.1942 54.7942 31.0747 54.9072L30.2812 55.7007C28.1636 52.8267 26.9954 49.3637 26.9394 45.7943C26.8834 42.2249 27.9424 38.7269 29.9688 35.7879C30.5758 36.122 31.2749 36.2503 31.961 36.1536C32.6472 36.057 33.2836 35.7406 33.7748 35.2518C34.266 34.7631 34.5856 34.1283 34.6857 33.4427C34.7858 32.757 34.6609 32.0573 34.3299 31.4486C37.2689 29.4222 40.7669 28.3633 44.3363 28.4193C47.9057 28.4753 51.3687 29.6434 54.2427 31.761L53.4367 32.5451C53.3205 32.6623 53.2554 32.8206 53.2555 32.9856C53.255 33.0678 53.2708 33.1494 53.3019 33.2255C53.333 33.3016 53.3788 33.3708 53.4367 33.4292L56.1921 36.1628C56.3092 36.2792 56.4676 36.3445 56.6326 36.3445C56.7977 36.3445 56.956 36.2792 57.0731 36.1628L59.8129 33.423C59.871 33.365 59.9171 33.296 59.9485 33.2202C59.98 33.1443 59.9962 33.063 59.9962 32.9809C59.9962 32.8988 59.98 32.8175 59.9485 32.7417C59.9171 32.6658 59.871 32.5969 59.8129 32.5389L57.0731 29.7991C56.956 29.6827 56.7977 29.6174 56.6326 29.6174C56.4676 29.6174 56.3092 29.6827 56.1921 29.7991L55.1331 30.8519C52.5229 28.8878 49.4371 27.6538 46.1923 27.2766C42.9476 26.8994 39.6609 27.3927 36.6699 28.7057L40.2719 25.113C40.6803 25.3081 41.1447 25.3523 41.5826 25.2377C42.0205 25.123 42.4036 24.857 42.664 24.4867C42.9244 24.1165 43.0452 23.666 43.005 23.2151C42.9649 22.7642 42.7663 22.3422 42.4445 22.0238C42.1228 21.7054 41.6987 21.5113 41.2474 21.4759C40.7961 21.4405 40.3469 21.566 39.9794 21.8303C39.6119 22.0946 39.3499 22.4805 39.2399 22.9196C39.1299 23.3587 39.179 23.8225 39.3784 24.2289L33.299 30.3177C32.6817 29.9036 31.9399 29.7167 31.2001 29.7889C30.4603 29.8611 29.7686 30.1879 29.243 30.7134C28.7174 31.239 28.3906 31.9308 28.3184 32.6705C28.2463 33.4103 28.4332 34.1522 28.8472 34.7695L22.7584 40.8489C22.3505 40.6501 21.8853 40.6024 21.4455 40.7142C21.0057 40.826 20.6198 41.0901 20.3564 41.4596C20.0929 41.8291 19.969 42.28 20.0066 42.7322C20.0442 43.1845 20.2409 43.6087 20.5618 43.9296C20.8827 44.2505 21.3069 44.4472 21.7592 44.4848C22.2114 44.5224 22.6623 44.3985 23.0318 44.135C23.4013 43.8716 23.6654 43.4857 23.7772 43.0459C23.889 42.6061 23.8413 42.1409 23.6425 41.733L27.2446 38.1403C25.9302 41.1306 25.4355 44.4168 25.811 47.6615C26.1865 50.9062 27.4188 53.9925 29.3814 56.6035L28.3255 57.6626C28.2091 57.7796 28.1438 57.938 28.1438 58.1031C28.1438 58.2681 28.2091 58.4265 28.3255 58.5436L31.0653 61.2834C31.1819 61.4007 31.3403 61.467 31.5058 61.4677C31.5882 61.4677 31.6699 61.4515 31.746 61.4199C31.8222 61.3882 31.8913 61.3418 31.9494 61.2834L34.6923 58.5436C34.8087 58.4265 34.874 58.2681 34.874 58.1031C34.874 57.938 34.8087 57.7796 34.6923 57.6626L31.9588 54.9072ZM56.6389 31.1174L58.4946 32.9731L56.6389 34.8288L54.7832 32.9731L56.6389 31.1174ZM40.628 22.9261C40.7209 22.8325 40.8395 22.7686 40.9687 22.7425C41.0979 22.7164 41.232 22.7293 41.3539 22.7795C41.4758 22.8297 41.58 22.915 41.6534 23.0245C41.7267 23.134 41.7659 23.2629 41.7659 23.3947C41.7659 23.5266 41.7267 23.6555 41.6534 23.765C41.58 23.8745 41.4758 23.9598 41.3539 24.01C41.232 24.0602 41.0979 24.0731 40.9687 24.047C40.8395 24.0209 40.7209 23.957 40.628 23.8634C40.5665 23.8018 40.5176 23.7288 40.4843 23.6484C40.4509 23.568 40.4338 23.4818 40.4338 23.3947C40.4338 23.3077 40.4509 23.2215 40.4843 23.1411C40.5176 23.0607 40.5665 22.9877 40.628 22.9261ZM30.1312 31.6017C30.3126 31.4194 30.5283 31.2747 30.7658 31.176C31.0033 31.0773 31.258 31.0265 31.5152 31.0265C31.7724 31.0265 32.027 31.0773 32.2645 31.176C32.502 31.2747 32.7177 31.4194 32.8991 31.6017C33.1734 31.8755 33.3602 32.2245 33.4361 32.6045C33.5119 32.9846 33.4733 33.3786 33.3251 33.7367C33.177 34.0948 32.9259 34.4009 32.6037 34.6163C32.2815 34.8317 31.9027 34.9466 31.5152 34.9466C31.1276 34.9466 30.7488 34.8317 30.4266 34.6163C30.1044 34.4009 29.8533 34.0948 29.7052 33.7367C29.557 33.3786 29.5184 32.9846 29.5942 32.6045C29.6701 32.2245 29.8569 31.8755 30.1312 31.6017ZM22.396 43.0357C22.2685 43.1421 22.1057 43.1969 21.9398 43.1894C21.7739 43.1819 21.6168 43.1126 21.4993 42.9952C21.3819 42.8778 21.3126 42.7206 21.3051 42.5547C21.2976 42.3888 21.3524 42.2261 21.4588 42.0985C21.5838 41.9756 21.7521 41.9068 21.9274 41.9068C22.1027 41.9068 22.271 41.9756 22.396 42.0985C22.4576 42.16 22.5065 42.2331 22.5398 42.3135C22.5731 42.3939 22.5903 42.4801 22.5903 42.5671C22.5903 42.6542 22.5731 42.7403 22.5398 42.8208C22.5065 42.9012 22.4576 42.9742 22.396 43.0357ZM31.5152 59.9463L29.6595 58.0906L31.5152 56.2349L33.3709 58.0906L31.5152 59.9463Z" fill="#4500D0"/>
</svg>
