<svg width="80" height="80" viewBox="0 0 80 80" fill="none" xmlns="http://www.w3.org/2000/svg">
<rect x="0.5" y="0.5" width="79" height="79" rx="39.5" fill="#FFDAF0"/>
<rect x="0.5" y="0.5" width="79" height="79" rx="39.5" stroke="#BB0064" stroke-dasharray="3 2"/>
<path d="M30.7003 46.6445C31.0738 46.4291 31.2017 45.9509 30.9863 45.5773C30.7705 45.2041 30.2926 45.0759 29.9191 45.2914C29.5455 45.5071 29.4173 45.9853 29.6331 46.3586C29.8486 46.7321 30.3268 46.8603 30.7003 46.6445Z" fill="#BB0064"/>
<path d="M27.4988 52.0368L31.4331 58.8517C32.2821 60.3238 34.1919 60.8689 35.7022 59.9958C37.1966 59.1321 37.7103 57.2226 36.8457 55.727L34.5019 51.6669L36.5317 50.495C36.9052 50.279 37.0334 49.8014 36.8176 49.4278L35.8017 47.6682C35.9228 47.6447 36.7194 47.4884 50.7657 44.733C52.5021 44.6387 53.5425 42.7396 52.6654 41.2213L50.069 36.7243L51.7282 34.2111C51.8912 33.964 51.9009 33.6463 51.7529 33.3899L50.1904 30.6836C50.0424 30.4273 49.7613 30.2771 49.4668 30.2945L46.4612 30.4749L43.5788 25.4822C43.1613 24.7589 42.4133 24.321 41.5784 24.3106C41.5683 24.3103 41.5585 24.3103 41.5485 24.3103C40.7416 24.3103 40.0091 24.7119 39.5752 25.391L29.3695 38.3921L22.7347 42.2226C20.1251 43.7287 19.2212 47.0764 20.733 49.693C22.1142 52.0856 25.0262 53.0268 27.4988 52.0368ZM35.4928 56.5085C35.9244 57.255 35.6689 58.2102 34.9203 58.6426C34.1693 59.0769 33.2129 58.8101 32.7862 58.0707L28.88 51.304L31.5863 49.7415C36.1072 57.573 35.4202 56.3831 35.4928 56.5085ZM33.7207 50.3134L32.9394 48.9603L34.2926 48.179L35.0738 49.5322L33.7207 50.3134ZM49.0787 31.883L50.1584 33.7531L49.1955 35.2112L47.3346 31.9876L49.0787 31.883ZM40.8819 26.2476C41.0916 25.9046 41.4242 25.8692 41.5591 25.8728C41.6925 25.8744 42.0248 25.9159 42.2253 26.2632L51.3122 42.0026C51.6083 42.515 51.2485 43.1592 50.6549 43.1739C50.5484 43.1763 50.4993 43.1955 50.2264 43.2465L40.6143 26.5976C40.816 26.3382 40.842 26.3132 40.8819 26.2476ZM39.5746 27.9221L48.6056 43.5645L34.9759 46.2378L30.8316 39.0598L39.5746 27.9221ZM22.0862 48.9118C21.7431 48.3182 21.5619 47.6444 21.5619 46.9626C21.5619 45.5692 22.3108 44.2716 23.5159 43.5758L29.6051 40.0601L33.5113 46.8259L27.4222 50.3418C25.5566 51.4185 23.1631 50.777 22.0862 48.9118Z" fill="#BB0064"/>
<path d="M28.2799 47.14C28.0642 46.7665 27.5863 46.6383 27.2127 46.8541L25.8596 47.6353C25.4867 47.8508 25.0079 47.7223 24.7924 47.3494C24.5766 46.9758 24.0987 46.8477 23.7252 47.0634C23.3517 47.2792 23.2235 47.7571 23.4392 48.1306C24.0823 49.2445 25.5166 49.6373 26.6408 48.9885L27.994 48.2072C28.3675 47.9915 28.4957 47.5139 28.2799 47.14Z" fill="#BB0064"/>
<path d="M58.8388 25.9814L54.4855 28.4039C54.1086 28.6139 53.9728 29.0897 54.1828 29.4665C54.3921 29.8431 54.8676 29.9795 55.2454 29.7693L59.5984 27.3468C59.9756 27.1368 60.1111 26.6611 59.9011 26.2842C59.6915 25.907 59.2157 25.7715 58.8388 25.9814Z" fill="#BB0064"/>
<path d="M58.3822 34.0726L55.3637 33.2639C54.9469 33.1522 54.5184 33.3994 54.4067 33.8163C54.295 34.2332 54.5425 34.6613 54.9594 34.773L57.9782 35.5817C58.3975 35.6943 58.8238 35.4432 58.9349 35.0294C59.0466 34.6125 58.7991 34.184 58.3822 34.0726Z" fill="#BB0064"/>
<path d="M50.7969 23.143L49.9873 26.1618C49.8756 26.5786 50.1228 27.0068 50.5396 27.1188C50.9562 27.2302 51.3847 26.9836 51.4967 26.5664L52.306 23.5476C52.4177 23.1307 52.1705 22.7023 51.7536 22.5906C51.3371 22.4789 50.9086 22.7261 50.7969 23.143Z" fill="#BB0064"/>
</svg>
