<svg width="80" height="80" viewBox="0 0 80 80" fill="none" xmlns="http://www.w3.org/2000/svg">
<rect x="0.5" y="0.5" width="79" height="79" rx="39.5" fill="#D1F5E4"/>
<rect x="0.5" y="0.5" width="79" height="79" rx="39.5" stroke="#00BC65" stroke-dasharray="3 2"/>
<path d="M34.888 50.5693C34.7168 50.5693 34.5442 50.5104 34.4035 50.3905L29.56 46.2663C29.3929 46.1239 29.2969 45.9159 29.2969 45.6962C29.2969 45.4769 29.3934 45.2689 29.56 45.1265L34.4035 41.0022C34.718 40.7341 35.1904 40.7721 35.4586 41.0866C35.7263 41.4015 35.6887 41.8739 35.3738 42.1417L31.1998 45.6962L35.3738 49.2507C35.6887 49.5188 35.7263 49.9912 35.4586 50.3057C35.3103 50.4799 35.0998 50.5693 34.888 50.5693Z" fill="#00BC65"/>
<path d="M44.4491 50.5693C44.2373 50.5693 44.0268 50.4799 43.8789 50.3057C43.6108 49.9912 43.6488 49.5188 43.9633 49.2507L48.1372 45.6962L43.9633 42.1417C43.6488 41.8739 43.6108 41.4015 43.8789 41.0866C44.1467 40.7721 44.6195 40.7341 44.9336 41.0022L49.777 45.1265C49.9441 45.2689 50.0402 45.4769 50.0402 45.6962C50.0402 45.9159 49.9441 46.1239 49.777 46.2663L44.9336 50.3905C44.7928 50.5104 44.6203 50.5693 44.4491 50.5693Z" fill="#00BC65"/>
<path d="M37.9538 53.6626C37.9024 53.6626 37.8506 53.6572 37.7984 53.6463C37.3941 53.5611 37.1351 53.1639 37.2203 52.7596L40.2389 38.4276C40.3241 38.0233 40.7209 37.7643 41.1257 37.8495C41.53 37.9347 41.789 38.3315 41.7038 38.7362L38.6851 53.0683C38.6108 53.4208 38.3 53.6626 37.9538 53.6626Z" fill="#00BC65"/>
<path d="M57.3116 61.47H22.0256C19.2547 61.47 17 59.2158 17 56.4444V26.4956C17 23.7247 19.2547 21.47 22.0256 21.47H57.3116C60.0825 21.47 62.3372 23.7247 62.3372 26.4956V56.4444C62.3372 59.2158 60.0825 61.47 57.3116 61.47ZM22.0256 22.967C20.08 22.967 18.497 24.55 18.497 26.4956V56.4444C18.497 58.39 20.08 59.973 22.0256 59.973H57.3116C59.2572 59.973 60.8402 58.39 60.8402 56.4444V26.4956C60.8402 24.55 59.2572 22.967 57.3116 22.967H22.0256Z" fill="#00BC65"/>
<path d="M61.5887 33.4553H17.7485C17.335 33.4553 17 33.1203 17 32.7068C17 32.2937 17.335 31.9583 17.7485 31.9583H61.5887C62.0022 31.9583 62.3372 32.2937 62.3372 32.7068C62.3372 33.1203 62.0022 33.4553 61.5887 33.4553Z" fill="#00BC65"/>
<path d="M29.7886 29.8734C28.4829 29.8734 27.4199 28.8104 27.4199 27.5047C27.4199 26.1986 28.4829 25.136 29.7886 25.136C31.0947 25.136 32.1573 26.1986 32.1573 27.5047C32.1573 28.8104 31.0947 29.8734 29.7886 29.8734ZM29.7886 26.633C29.3083 26.633 28.9169 27.0239 28.9169 27.5047C28.9169 27.9855 29.3083 28.3764 29.7886 28.3764C30.2694 28.3764 30.6603 27.9855 30.6603 27.5047C30.6603 27.0239 30.2694 26.633 29.7886 26.633Z" fill="#00BC65"/>
<path d="M22.5113 29.85C21.2052 29.85 20.1426 28.7874 20.1426 27.4813C20.1426 26.1752 21.2052 25.1126 22.5113 25.1126C23.8174 25.1126 24.88 26.1752 24.88 27.4813C24.88 28.7874 23.8174 29.85 22.5113 29.85ZM22.5113 26.6096C22.0309 26.6096 21.6396 27.0009 21.6396 27.4813C21.6396 27.962 22.0309 28.353 22.5113 28.353C22.992 28.353 23.383 27.962 23.383 27.4813C23.383 27.0009 22.992 26.6096 22.5113 26.6096Z" fill="#00BC65"/>
<path d="M37.0665 29.8964C35.7608 29.8964 34.6982 28.8338 34.6982 27.5277C34.6982 26.222 35.7608 25.1595 37.0665 25.1595C38.3726 25.1595 39.4352 26.222 39.4352 27.5277C39.4352 28.8338 38.3726 29.8964 37.0665 29.8964ZM37.0665 26.656C36.5862 26.656 36.1952 27.047 36.1952 27.5277C36.1952 28.0085 36.5862 28.3994 37.0665 28.3994C37.5473 28.3994 37.9382 28.0085 37.9382 27.5277C37.9382 27.047 37.5473 26.656 37.0665 26.656Z" fill="#00BC65"/>
</svg>
