<svg width="80" height="80" viewBox="0 0 80 80" fill="none" xmlns="http://www.w3.org/2000/svg">
<rect x="0.5" y="0.5" width="79" height="79" rx="39.5" fill="#FFF3D9"/>
<rect x="0.5" y="0.5" width="79" height="79" rx="39.5" stroke="#F2A700" stroke-dasharray="3 2"/>
<path d="M55.2 27.561C55.994 27.561 56.6364 26.9186 56.6364 26.1246C56.6364 25.3307 55.994 24.6883 55.2 24.6883C54.4061 24.6883 53.7637 25.3307 53.7637 26.1246C53.7637 26.9186 54.4122 27.561 55.2 27.561ZM55.2 25.7125C55.4303 25.7125 55.6182 25.9004 55.6182 26.1307C55.6182 26.361 55.4303 26.5489 55.2 26.5489C54.9637 26.5489 54.7819 26.3671 54.7819 26.1307C54.7819 25.8943 54.9697 25.7125 55.2 25.7125Z" fill="#F2A700"/>
<path d="M56.7942 22.367H27.2669C26.1457 22.367 25.2305 23.2821 25.2305 24.4033V27.5124H23.2063C22.0851 27.5124 21.1699 28.4276 21.1699 29.5488V55.0821C21.1699 56.2033 22.0851 57.1185 23.2063 57.1185H36.7396V60.0639C36.7396 60.3427 36.9699 60.573 37.2487 60.573H46.8123C47.0911 60.573 47.3214 60.3427 47.3214 60.0639V57.1185H52.7336C53.8548 57.1185 54.7699 56.2033 54.7699 55.0821V51.973H56.7942C57.9154 51.973 58.8305 51.0579 58.8305 49.9367V24.4033C58.8305 23.2821 57.9154 22.367 56.7942 22.367ZM26.2487 24.4033C26.2487 23.8397 26.7093 23.3852 27.2669 23.3852H56.7942C57.3578 23.3852 57.8123 23.8458 57.8123 24.4033V28.87H38.4911L36.2184 26.5124C36.0426 26.3306 35.8002 26.2276 35.5517 26.2276H30.5457C30.0366 26.2276 29.6184 26.6458 29.6184 27.1549V28.87H26.2487V24.4033ZM23.2063 56.1064C22.6426 56.1064 22.1881 55.6458 22.1881 55.0882V29.5488C22.1881 28.9852 22.6487 28.5306 23.2063 28.5306H25.2305V49.9427C25.2305 51.0639 26.1457 51.9791 27.2669 51.9791H38.3214C38.5214 52.367 38.6123 52.8033 38.576 53.2518H37.7881C37.2063 53.2518 36.7396 53.7245 36.7396 54.3003V56.1064H23.2063ZM41.5275 45.4458C41.6305 45.2639 41.8184 45.1488 42.0305 45.1488C42.3457 45.1488 42.6002 45.4033 42.6002 45.7185C42.6002 45.9245 42.4911 46.1124 42.3154 46.2155C42.1214 46.3306 41.8911 46.3185 41.6548 46.1852C41.6245 46.167 41.5942 46.1427 41.582 46.1124C41.3881 45.8033 41.4669 45.5609 41.5275 45.4458ZM41.5214 44.2276C41.1517 44.3549 40.8366 44.6033 40.6427 44.9549C40.3517 45.4761 40.3881 46.1124 40.7275 46.6579C40.8366 46.8276 40.982 46.967 41.1578 47.07C41.4366 47.2276 41.7396 47.3124 42.0366 47.3124C42.3154 47.3124 42.5881 47.2397 42.8305 47.1003C43.3154 46.8155 43.6184 46.2882 43.6184 45.7245C43.6184 45.0276 43.1639 44.4397 42.5396 44.2276V41.6094L47.0426 49.7367C47.0366 49.7427 47.0305 49.7549 47.0123 49.7609C45.4184 50.173 44.376 51.6639 44.4608 53.2518H39.6063C39.6972 51.6579 38.6487 50.167 37.0245 49.7124L41.5214 41.6094V44.2276ZM46.3033 59.5549H37.7578L37.7881 54.2639H46.273C46.2911 54.2639 46.3033 54.2761 46.3033 54.2942V59.5549ZM53.7517 55.0821C53.7517 55.6458 53.2911 56.1003 52.7336 56.1003H47.3214V54.2942C47.3214 53.7124 46.8487 53.2458 46.273 53.2458H45.4851C45.4487 52.7973 45.5457 52.3609 45.7396 51.973H53.7517V55.0821ZM56.7942 50.9609H46.7275C46.8911 50.87 47.0669 50.7912 47.2608 50.7427C47.582 50.6579 47.8426 50.4336 47.976 50.1306C48.1033 49.8336 48.0851 49.5003 47.9275 49.2155L42.7154 39.8276C42.582 39.5791 42.3214 39.4215 42.0366 39.4215C41.7457 39.4276 41.4851 39.573 41.3457 39.8215L36.1275 49.2155C35.9699 49.5003 35.9578 49.8397 36.0851 50.1367C36.2123 50.4397 36.473 50.6579 36.7942 50.7427C36.9881 50.7912 37.1578 50.87 37.3275 50.9609H27.2669C26.7033 50.9609 26.2487 50.5003 26.2487 49.9427V29.8882H29.7033C30.2124 29.8882 30.6305 29.47 30.6305 28.9609V27.2458H35.5093L37.782 29.6033C37.9578 29.7852 38.2002 29.8882 38.4487 29.8882H57.8123V49.9367C57.8123 50.5003 57.3578 50.9609 56.7942 50.9609Z" fill="#F2A700"/>
<path d="M51.7337 27.561C52.5277 27.561 53.1701 26.9186 53.1701 26.1246C53.1701 25.3307 52.5277 24.6883 51.7337 24.6883C50.9398 24.6883 50.2974 25.3307 50.2974 26.1246C50.2974 26.9186 50.9398 27.561 51.7337 27.561ZM51.7337 25.7125C51.964 25.7125 52.1519 25.9004 52.1519 26.1307C52.1519 26.361 51.964 26.5489 51.7337 26.5489C51.4974 26.5489 51.3155 26.3671 51.3155 26.1307C51.3155 25.8943 51.5034 25.7125 51.7337 25.7125Z" fill="#F2A700"/>
<path d="M48.2611 27.561C49.055 27.561 49.6974 26.9186 49.6974 26.1246C49.6974 25.3307 49.055 24.6883 48.2611 24.6883C47.4671 24.6883 46.8247 25.3307 46.8247 26.1246C46.8247 26.9186 47.4671 27.561 48.2611 27.561ZM48.2611 25.7125C48.4914 25.7125 48.6793 25.9004 48.6793 26.1307C48.6793 26.361 48.4914 26.5489 48.2611 26.5489C48.0247 26.5489 47.8429 26.3671 47.8429 26.1307C47.8429 25.8943 48.0308 25.7125 48.2611 25.7125Z" fill="#F2A700"/>
<path d="M51.8424 34.3243C51.5455 34.6213 51.3576 34.997 51.2849 35.397H44.1636V34.597C44.1636 34.0516 43.7212 33.6092 43.1758 33.6092H40.8788C40.3333 33.6092 39.8909 34.0516 39.8909 34.597V35.397H32.7758C32.7091 35.0031 32.5212 34.6273 32.2182 34.3183C31.4485 33.5607 30.1333 33.5728 29.3818 34.3243C29 34.7061 28.7939 35.2092 28.7939 35.7425C28.7939 36.2819 29.0061 36.791 29.3818 37.1607C29.7636 37.5546 30.2727 37.7546 30.8 37.7546C31.1333 37.7546 31.4727 37.6758 31.7939 37.5122C32.1394 37.3364 32.4242 37.0455 32.5939 36.6879C32.6364 36.597 32.6727 36.5061 32.703 36.4152H37.6424C34.9576 37.7243 32.9333 40.1849 32.2303 43.1546H31.4424C30.897 43.1546 30.4545 43.597 30.4545 44.1425V46.4395C30.4545 46.9849 30.897 47.4273 31.4424 47.4273H33.7394C34.2849 47.4273 34.7273 46.9849 34.7273 46.4395V44.1425C34.7273 43.597 34.2849 43.1546 33.7394 43.1546H33.2788C34.1273 39.9546 36.6909 37.4455 39.9091 36.6698V36.8879C39.9091 37.4334 40.3515 37.8758 40.897 37.8758H43.1939C43.7394 37.8758 44.1818 37.4334 44.1818 36.8879V36.6698C47.3939 37.4455 49.9576 39.9546 50.8121 43.1546H50.3939C49.8485 43.1546 49.4061 43.597 49.4061 44.1425V46.4395C49.4061 46.9849 49.8485 47.4273 50.3939 47.4273H52.6909C53.2364 47.4273 53.6788 46.9849 53.6788 46.4395V44.1425C53.6788 43.597 53.2364 43.1546 52.6909 43.1546H51.8606C51.1515 40.1849 49.1273 37.7183 46.4485 36.4152H51.4C51.497 36.694 51.6546 36.9486 51.8667 37.1607C52.2485 37.5546 52.7576 37.7546 53.2849 37.7546C53.6182 37.7546 53.9576 37.6758 54.2788 37.5122C54.6242 37.3364 54.9091 37.0455 55.0788 36.6879C55.4727 35.8576 55.3333 34.9546 54.7091 34.3183C53.9152 33.5667 52.6 33.5728 51.8424 34.3243ZM31.6667 36.2576C31.5939 36.4031 31.4727 36.5304 31.3273 36.6031C30.8 36.8698 30.3455 36.7001 30.097 36.4395C29.9091 36.2576 29.8061 36.0092 29.8061 35.7425C29.8061 35.4819 29.9091 35.2334 30.097 35.0395C30.2848 34.8516 30.5333 34.7486 30.8 34.7486C31.0606 34.7486 31.3152 34.8516 31.497 35.0334C31.8121 35.3607 31.8727 35.8152 31.6667 36.2576ZM33.7273 46.4092L31.4606 46.4395L31.4303 44.1728H33.697L33.7273 46.4092ZM52.6727 46.4092L50.4061 46.4395L50.3758 44.1728H52.6424L52.6727 46.4092ZM40.9152 36.894L40.903 36.1304C40.9152 36.0758 40.9152 36.0213 40.9091 35.9607V35.9546C40.9091 35.9364 40.9212 35.9243 40.9212 35.9061C40.9212 35.8758 40.9091 35.8516 40.903 35.8273L40.8849 34.6334H43.1515L43.1697 35.8273C43.1636 35.8576 43.1515 35.8819 43.1515 35.9122C43.1515 35.9304 43.1576 35.9425 43.1636 35.9607V35.9667C43.1515 36.0455 43.1576 36.1183 43.1758 36.1849L43.1879 36.8698L40.9152 36.894ZM54.1333 36.2576C54.0606 36.4031 53.9394 36.5304 53.7939 36.6031C53.2667 36.8698 52.8121 36.7001 52.5636 36.4395C52.3758 36.2576 52.2727 36.0092 52.2727 35.7425C52.2727 35.4819 52.3758 35.2334 52.5636 35.0395C52.7515 34.8516 53 34.7486 53.2667 34.7486C53.5273 34.7486 53.7818 34.8516 53.9636 35.0334C54.2788 35.3607 54.3394 35.8152 54.1333 36.2576Z" fill="#F2A700"/>
</svg>
