<svg width="80" height="80" viewBox="0 0 80 80" fill="none" xmlns="http://www.w3.org/2000/svg">
<rect x="0.5" y="0.5" width="79" height="79" rx="39.5" fill="#1B75E8" fill-opacity="0.1"/>
<rect x="0.5" y="0.5" width="79" height="79" rx="39.5" stroke="#1B75E8" stroke-dasharray="3 2"/>
<path d="M55.9999 43.47V42.1366C56.3679 42.1366 56.6666 41.8382 56.6666 41.47V37.47C56.6666 37.1017 56.3679 36.8033 55.9999 36.8033H52.3999L52.2708 36.3025C51.976 35.1572 51.5182 34.0601 50.9106 33.0452L50.644 32.5991L53.1999 30.0387C53.4572 29.7809 53.4572 29.3632 53.1999 29.1054L50.3687 26.27C50.1072 26.0208 49.6966 26.0208 49.4351 26.27L46.8744 28.8307L46.4286 28.564C45.4122 27.9562 44.314 27.4984 43.1671 27.2033L42.6666 27.0731V23.47C42.6666 23.1018 42.3682 22.8033 42 22.8033H38C37.6317 22.8033 37.3333 23.1018 37.3333 23.47V27.07L36.8325 27.1994C35.6872 27.4939 34.5901 27.9518 33.5747 28.5585L33.1286 28.8255L30.5687 26.27C30.307 26.0187 29.8937 26.0187 29.632 26.27L26.8 29.1012C26.6755 29.2255 26.6055 29.3942 26.6055 29.57C26.6055 29.746 26.6755 29.9145 26.8 30.0387L29.3607 32.5991L29.094 33.0452C28.4867 34.0601 28.0286 35.1572 27.7341 36.3025L27.6034 36.8033H24C23.6318 36.8033 23.3333 37.1017 23.3333 37.47V41.47C23.3333 41.8382 23.6318 42.1366 24 42.1366V43.47C22.8956 43.47 22 42.5744 22 41.47V37.47C22 36.3655 22.8956 35.47 24 35.47H26.5794C26.8544 34.5481 27.2263 33.658 27.6888 32.8148L25.8555 30.9814C25.4805 30.6072 25.2698 30.0994 25.2698 29.57C25.2698 29.0406 25.4805 28.5327 25.8555 28.1588L28.6888 25.3255C29.4781 24.57 30.7226 24.57 31.512 25.3255L33.3448 27.158C34.188 26.6958 35.0784 26.3247 36 26.0499V23.47C36 22.3656 36.8955 21.47 38 21.47H42C43.1044 21.47 44 22.3656 44 23.47V26.0499C44.9218 26.3247 45.8117 26.6966 46.6552 27.1588L48.4885 25.3255C49.2781 24.57 50.5223 24.57 51.3119 25.3255L54.1447 28.158C54.5195 28.5322 54.7299 29.0395 54.7299 29.5692C54.7299 30.0989 54.5195 30.6067 54.1447 30.9807L52.3114 32.814C52.7736 33.6577 53.1452 34.5481 53.4205 35.47H55.9999C57.1044 35.47 57.9999 36.3655 57.9999 37.47V41.47C57.9999 42.5744 57.1044 43.47 55.9999 43.47Z" fill="#1B75E8"/>
<path d="M49.3336 39.4693H48.0003C48.0003 35.0511 44.4185 31.4693 40.0003 31.4693C35.5821 31.4693 32.0003 35.0511 32.0003 39.4693H30.667C30.667 34.3147 34.8456 30.136 40.0003 30.136C45.1547 30.136 49.3336 34.3147 49.3336 39.4693Z" fill="#1B75E8"/>
<path d="M40 44.804C37.7909 44.804 36 43.0128 36 40.804C36 38.5949 37.7909 36.804 40 36.804C42.2094 36.804 44 38.5949 44 40.804C43.9976 43.0123 42.2083 44.8016 40 44.804ZM40 38.1373C38.5273 38.1373 37.3333 39.3313 37.3333 40.804C37.3333 42.2766 38.5273 43.4706 40 43.4706C41.4726 43.4706 42.6667 42.2766 42.6667 40.804C42.6667 39.3313 41.4726 38.1373 40 38.1373Z" fill="#1B75E8"/>
<path d="M51.333 47.47C49.1239 47.47 47.333 45.6788 47.333 43.47C47.333 41.2609 49.1239 39.47 51.333 39.47C53.5421 39.47 55.333 41.2609 55.333 43.47C55.3306 45.6783 53.5413 47.4676 51.333 47.47ZM51.333 40.8033C49.8603 40.8033 48.6663 41.9973 48.6663 43.47C48.6663 44.9426 49.8603 46.1367 51.333 46.1367C52.8057 46.1367 53.9997 44.9426 53.9997 43.47C53.9997 41.9973 52.8057 40.8033 51.333 40.8033Z" fill="#1B75E8"/>
<path d="M28.667 47.47C26.4579 47.47 24.667 45.6788 24.667 43.47C24.667 41.2609 26.4579 39.47 28.667 39.47C30.8764 39.47 32.667 41.2609 32.667 43.47C32.6646 45.6783 30.8753 47.4676 28.667 47.47ZM28.667 40.8033C27.1943 40.8033 26.0003 41.9973 26.0003 43.47C26.0003 44.9426 27.1943 46.1367 28.667 46.1367C30.1396 46.1367 31.3336 44.9426 31.3336 43.47C31.3336 41.9973 30.1396 40.8033 28.667 40.8033Z" fill="#1B75E8"/>
<path d="M57.377 49.1804C56.3835 48.4976 55.2057 48.1333 53.9999 48.1367H48.6666C48.3424 48.1396 48.0187 48.169 47.6992 48.2245C47.2726 47.5573 46.7177 46.9818 46.0666 46.5305C45.969 46.4568 45.8664 46.3898 45.7593 46.3307C44.8268 45.7659 43.7567 45.4685 42.6666 45.47H37.3333C35.2945 45.4627 33.3948 46.5031 32.3026 48.2245C31.9823 48.169 31.658 48.1396 31.3333 48.1367H26C24.7953 48.1333 23.6177 48.4971 22.6247 49.1791C20.9836 50.2958 20.001 52.1518 20 54.1367V56.8033C20.0023 58.6237 21.0615 60.2768 22.7148 61.0393C23.3252 61.3268 23.9922 61.4739 24.6667 61.47H31.3333V60.1367H25.3333V52.8034H24V60.0697C23.749 60.0195 23.5052 59.9382 23.274 59.8286C22.093 59.2841 21.3359 58.1036 21.3333 56.8033V54.1367C21.3349 52.5919 22.1003 51.1479 23.3773 50.2791C24.149 49.7495 25.0638 49.4674 26 49.47H31.3333C31.4508 49.47 31.564 49.4825 31.6786 49.4903C31.4531 50.1263 31.3362 50.7955 31.3333 51.47V58.1367C31.3357 59.9768 32.8268 61.4677 34.6666 61.47H36.6666V50.8034H35.3333V60.1367H34.6666C33.5622 60.1367 32.6666 59.2411 32.6666 58.1367V51.47C32.6666 48.8924 34.7562 46.8034 37.3333 46.8034H42.6666C43.5244 46.8039 44.3651 47.0414 45.0966 47.4893C45.1643 47.5263 45.2294 47.568 45.2911 47.6138C45.9158 48.0416 46.4286 48.6133 46.7859 49.2804C47.145 49.9544 47.3333 50.7062 47.3333 51.47V58.1367C47.3333 59.2411 46.4377 60.1367 45.3333 60.1367H44.6666V50.8034H43.3333V61.47H45.3333C47.1734 61.4677 48.6643 59.9768 48.6666 58.1367V51.47C48.6635 50.7955 48.5471 50.1265 48.3218 49.4903C48.4367 49.4825 48.5499 49.47 48.6666 49.47H53.9999C54.9366 49.4674 55.8523 49.7502 56.6244 50.2804C57.9004 51.1497 58.6648 52.5927 58.6666 54.1367V56.8033C58.6642 58.1083 57.9015 59.2921 56.7148 59.8338C56.4869 59.9416 56.2468 60.0208 55.9999 60.0697V52.8034H54.6666V60.1367H48.6666V61.47H55.3333C56.0038 61.4742 56.6669 61.3289 57.2739 61.0445C58.9327 60.2843 59.9973 58.6281 59.9999 56.8033V54.1367C59.9989 52.1526 59.0171 50.2974 57.377 49.1804Z" fill="#1B75E8"/>
<path d="M37.333 60.136H42.6663V61.4693H37.333V60.136Z" fill="#1B75E8"/>
</svg>
