<svg width="80" height="80" viewBox="0 0 80 80" fill="none" xmlns="http://www.w3.org/2000/svg">
<rect x="0.5" y="0.5" width="79" height="79" rx="39.5" fill="#DCF5FF"/>
<rect x="0.5" y="0.5" width="79" height="79" rx="39.5" stroke="#00A9ED" stroke-dasharray="3 2"/>
<path d="M56.0413 54.595H51.25C50.9864 53.6929 50.4375 52.9006 49.6856 52.3369C48.9336 51.7732 48.0192 51.4685 47.0794 51.4685C46.1396 51.4685 45.2252 51.7732 44.4732 52.3369C43.7212 52.9006 43.1723 53.6929 42.9087 54.595H22.5C22.1685 54.595 21.8505 54.7267 21.6161 54.9611C21.3817 55.1955 21.25 55.5134 21.25 55.845C21.25 56.1765 21.3817 56.4944 21.6161 56.7289C21.8505 56.9633 22.1685 57.095 22.5 57.095H42.9125C43.1771 57.9955 43.7263 58.7862 44.4777 59.3486C45.2292 59.911 46.1426 60.215 47.0813 60.215C48.0199 60.215 48.9333 59.911 49.6848 59.3486C50.4362 58.7862 50.9854 57.9955 51.25 57.095H56.0375C56.369 57.095 56.687 56.9633 56.9214 56.7289C57.1558 56.4944 57.2875 56.1765 57.2875 55.845C57.2875 55.5134 57.1558 55.1955 56.9214 54.9611C56.687 54.7267 56.369 54.595 56.0375 54.595H56.0413ZM47.0837 57.72C46.7129 57.72 46.3504 57.61 46.0421 57.404C45.7337 57.1979 45.4934 56.9051 45.3515 56.5625C45.2096 56.2199 45.1724 55.8429 45.2448 55.4792C45.3171 55.1155 45.4957 54.7814 45.7579 54.5191C46.0201 54.2569 46.3542 54.0783 46.718 54.006C47.0817 53.9336 47.4587 53.9708 47.8013 54.1127C48.1439 54.2546 48.4367 54.4949 48.6428 54.8033C48.8488 55.1116 48.9587 55.4741 48.9587 55.845C48.9587 56.3422 48.7612 56.8192 48.4096 57.1708C48.0579 57.5224 47.581 57.72 47.0837 57.72Z" fill="#00A9ED"/>
<path d="M54.825 22.72H25.175C24.1343 22.721 23.1366 23.1348 22.4007 23.8707C21.6648 24.6066 21.251 25.6043 21.25 26.645V46.295C21.251 47.3357 21.6648 48.3334 22.4007 49.0693C23.1366 49.8052 24.1343 50.219 25.175 50.22H54.825C55.8657 50.219 56.8634 49.8052 57.5993 49.0693C58.3352 48.3334 58.749 47.3357 58.75 46.295V26.645C58.749 25.6043 58.3352 24.6066 57.5993 23.8707C56.8634 23.1348 55.8657 22.721 54.825 22.72ZM56.25 46.295C56.2497 46.6728 56.0994 47.0351 55.8323 47.3023C55.5651 47.5694 55.2028 47.7197 54.825 47.72H25.175C24.7972 47.7197 24.4349 47.5694 24.1677 47.3023C23.9006 47.0351 23.7503 46.6728 23.75 46.295V26.645C23.7503 26.2672 23.9006 25.9049 24.1677 25.6377C24.4349 25.3706 24.7972 25.2203 25.175 25.22H54.825C55.2028 25.2203 55.5651 25.3706 55.8323 25.6377C56.0994 25.9049 56.2497 26.2672 56.25 26.645V46.295Z" fill="#00A9ED"/>
<path d="M46.9125 35.41L36.9125 29.16C36.7233 29.0417 36.5059 28.9763 36.2828 28.9704C36.0598 28.9646 35.8392 29.0185 35.644 29.1267C35.4489 29.2349 35.2862 29.3933 35.173 29.5856C35.0597 29.7778 35 29.9969 35 30.22V42.72C35 42.9431 35.0597 43.1622 35.173 43.3545C35.2862 43.5467 35.4489 43.7051 35.644 43.8133C35.8392 43.9215 36.0598 43.9754 36.2828 43.9696C36.5059 43.9637 36.7233 43.8983 36.9125 43.78L46.9125 37.53C47.0934 37.4179 47.2427 37.2615 47.3462 37.0755C47.4497 36.8896 47.504 36.6803 47.504 36.4675C47.504 36.2547 47.4497 36.0454 47.3462 35.8595C47.2427 35.6735 47.0934 35.5171 46.9125 35.405V35.41ZM37.5 40.47V32.47L43.8913 36.47L37.5 40.47Z" fill="#00A9ED"/>
</svg>
